<svg xmlns="http://www.w3.org/2000/svg" width="150" height="27.5" viewBox="0 0 150 27.5">
  <path id="U" fill="#fff" d="M205.4,25.406c-6.415,0-9.527-2.784-9.527-8.511V6.66h4.352V16.895c0,1.843.663,3.049,1.99,3.593a12.886,12.886,0,0,0,4.18.431h.133a6.858,6.858,0,0,0,3.483-.663c1.022-.6,1.519-1.7,1.533-3.348V6.66h4.372V16.921c0,5.714-3.118,8.5-9.52,8.525Z" transform="translate(-65.913 -2.246)"/>
  <path id="E" fill="#fff" d="M165.2,25.406,165.17,6.64h18.742l-2.833,4.508-11.159.013v.007h-.166v2.618h12.99l-2.813,4.481H169.754v2.652H183.9l-2.813,4.488Z" transform="translate(-55.58 -2.239)"/>
  <path id="R" fill="#fff" d="M145.115,25.43l-4.724-4.846h-7.013V25.43H129v-9.4h13.269a4.488,4.488,0,0,0,2.15-.491,2.128,2.128,0,0,0,1.168-1.916c0-1.127-.577-2.466-3.264-2.466h-13.1V6.617h12.718a9.148,9.148,0,0,1,5.633,1.69,6.375,6.375,0,0,1,2.468,5.369,6.625,6.625,0,0,1-1.008,3.533,6.758,6.758,0,0,1-2.74,2.439l-.3.146,5.5,5.634Z" transform="translate(-43.407 -2.229)"/>
  <path id="A" fill="#fff" d="M97.282,25.419l2.654-4.534h5.891l-4.452-7.617-7.2,12.111H88.73L98.562,8.648a4.3,4.3,0,0,1,1.247-1.405,2.847,2.847,0,0,1,1.652-.663h0a2.655,2.655,0,0,1,1.652.663,4.98,4.98,0,0,1,1.261,1.425l9.547,16.751Z" transform="translate(-29.853 -2.219)"/>
  <path id="D" fill="#fff" d="M57.92,25.375V14.106h4.85v6.715H72.1c2.415-.583,3.563-1.405,3.47-4.945s-1.1-4.64-3.443-4.786H57.92V6.45H74.108A5.662,5.662,0,0,1,76.9,7.676a9.643,9.643,0,0,1,3.165,5.3C81.107,18.806,79.4,22.856,75.083,25l-.723.232-.464.073-.292.06H57.92Z" transform="translate(-19.484 -2.175)"/>
  <path id="ICON" fill="#F93F06" d="M12.846,9c-.889.5-1.957,1.107-3.092,1.869C5.3,13.921-.277,18.561,0,23.247c.179,3.016,2.654,4.189,5.181,4.249,8.227.179,23.492-5.515,26.206-14.245C33.466,6.569,17.245-2.976,9.443.9,4.1,3.679.572,10.414.718,12.655c0,.1.046.411.186.292.478-.391,4.817-10.109,13.587-7.955,3.244.822,6.124,4.229,5.772,7.723-.6,6.059-9.082,11.421-12.327,8.617C5.044,18.846,11.254,12.423,13.6,9.851c.146-.166.816-.875.571-1.114S13.138,8.843,12.846,9Z" transform="translate(0.014 -0.001)"/>
</svg>